<?xml version="1.0" encoding="UTF-8"?>
<mxfile host="wiki.gematik.de" modified="2024-10-16T13:47:47.373Z" agent="Mozilla/5.0 (Windows NT 10.0; Win64; x64) AppleWebKit/537.36 (KHTML, like Gecko) Chrome/129.0.0.0 Safari/537.36" etag="tbYrrwzO2p4MLqhHNRNr" version="24.6.4" type="atlas">
  <diagram id="XZqBrHnGn3-9SLynYtlv" name="Seite-1">
    <mxGraphModel dx="1562" dy="904" grid="1" gridSize="10" guides="1" tooltips="1" connect="1" arrows="1" fold="1" page="0" pageScale="1" pageWidth="827" pageHeight="1169" math="0" shadow="0">
      <root>
        <mxCell id="0" />
        <mxCell id="1" parent="0" />
        <mxCell id="WGu5ZAYpoWvmzztNCjQf-6" value="TLS@Internet-PKI" style="rounded=1;whiteSpace=wrap;html=1;fillColor=default;strokeColor=default;dashed=1;" parent="1" vertex="1">
          <mxGeometry x="420" y="579.75" width="660" height="20" as="geometry" />
        </mxCell>
        <mxCell id="Ux8lGl-wnyfo4ktNm6vA-52" value="" style="rounded=0;whiteSpace=wrap;html=1;fillColor=#EDFDEC;strokeColor=#82B366;verticalAlign=top;" parent="1" vertex="1">
          <mxGeometry x="220" y="100" width="120" height="450" as="geometry" />
        </mxCell>
        <mxCell id="Ux8lGl-wnyfo4ktNm6vA-51" value="" style="rounded=0;whiteSpace=wrap;html=1;fillColor=#EDFDEC;strokeColor=#82B366;verticalAlign=top;" parent="1" vertex="1">
          <mxGeometry x="210" y="110" width="120" height="450" as="geometry" />
        </mxCell>
        <mxCell id="Ux8lGl-wnyfo4ktNm6vA-50" value="" style="rounded=0;whiteSpace=wrap;html=1;fillColor=#edfdec;strokeColor=#82b366;align=center;verticalAlign=top;" parent="1" vertex="1">
          <mxGeometry x="490" y="70" width="790" height="480" as="geometry" />
        </mxCell>
        <mxCell id="Ux8lGl-wnyfo4ktNm6vA-48" value="" style="rounded=0;whiteSpace=wrap;html=1;fillColor=#edfdec;strokeColor=#82b366;align=center;verticalAlign=top;" parent="1" vertex="1">
          <mxGeometry x="480" y="80" width="790" height="480" as="geometry" />
        </mxCell>
        <mxCell id="29rTgdMoYmhlcVRQ41To-1" value="&lt;b&gt;Anbieter/Betreiber Versichertenstammdatendienst&lt;/b&gt;" style="rounded=0;whiteSpace=wrap;html=1;fillColor=#edfdec;strokeColor=#82b366;align=center;verticalAlign=top;" parent="1" vertex="1">
          <mxGeometry x="470" y="90" width="790" height="480" as="geometry" />
        </mxCell>
        <mxCell id="29rTgdMoYmhlcVRQ41To-2" value="Zero Trust Cluster" style="rounded=0;whiteSpace=wrap;html=1;align=center;verticalAlign=top;fillColor=#fff3e5;strokeColor=#d79b00;" parent="1" vertex="1">
          <mxGeometry x="480" y="120" width="380" height="380" as="geometry" />
        </mxCell>
        <mxCell id="29rTgdMoYmhlcVRQ41To-3" value="Ingress&lt;div&gt;und&lt;/div&gt;&lt;div&gt;Egress&lt;div&gt;&lt;/div&gt;&lt;/div&gt;" style="rounded=0;whiteSpace=wrap;html=1;fillColor=#ffe6cc;strokeColor=#d79b00;verticalAlign=top;" parent="1" vertex="1">
          <mxGeometry x="490" y="130" width="50" height="360" as="geometry" />
        </mxCell>
        <mxCell id="29rTgdMoYmhlcVRQ41To-4" value="Legende" style="rounded=0;whiteSpace=wrap;html=1;align=left;verticalAlign=top;" parent="1" vertex="1">
          <mxGeometry y="579.75" width="180" height="140" as="geometry" />
        </mxCell>
        <mxCell id="29rTgdMoYmhlcVRQ41To-6" value="PDP" style="rounded=0;whiteSpace=wrap;html=1;fillColor=none;verticalAlign=top;strokeColor=#FFB570;dashed=1;strokeWidth=2;" parent="1" vertex="1">
          <mxGeometry x="550" y="270" width="300" height="150" as="geometry" />
        </mxCell>
        <mxCell id="29rTgdMoYmhlcVRQ41To-9" style="edgeStyle=orthogonalEdgeStyle;rounded=0;orthogonalLoop=1;jettySize=auto;html=1;entryX=0;entryY=0.5;entryDx=0;entryDy=0;" parent="1" source="29rTgdMoYmhlcVRQ41To-15" target="29rTgdMoYmhlcVRQ41To-18" edge="1">
          <mxGeometry relative="1" as="geometry">
            <mxPoint x="630" y="360" as="targetPoint" />
          </mxGeometry>
        </mxCell>
        <mxCell id="7Tdx6mqpSsqZb4YxP3zN-2" value="" style="edgeStyle=orthogonalEdgeStyle;rounded=0;orthogonalLoop=1;jettySize=auto;html=1;" parent="1" source="29rTgdMoYmhlcVRQ41To-15" target="7Tdx6mqpSsqZb4YxP3zN-1" edge="1">
          <mxGeometry relative="1" as="geometry" />
        </mxCell>
        <mxCell id="29rTgdMoYmhlcVRQ41To-15" value="Authorization Server" style="rounded=0;whiteSpace=wrap;html=1;fillColor=#ffe6cc;strokeColor=#d79b00;" parent="1" vertex="1">
          <mxGeometry x="570" y="360" width="120" height="40" as="geometry" />
        </mxCell>
        <mxCell id="29rTgdMoYmhlcVRQ41To-16" style="edgeStyle=orthogonalEdgeStyle;rounded=1;orthogonalLoop=1;jettySize=auto;html=1;exitX=0.5;exitY=1;exitDx=0;exitDy=0;curved=0;endArrow=none;endFill=0;" parent="1" source="29rTgdMoYmhlcVRQ41To-18" edge="1">
          <mxGeometry relative="1" as="geometry">
            <Array as="points">
              <mxPoint x="780" y="410" />
              <mxPoint x="450" y="410" />
            </Array>
            <mxPoint x="450" y="610" as="targetPoint" />
          </mxGeometry>
        </mxCell>
        <mxCell id="29rTgdMoYmhlcVRQ41To-18" value="Policy Engine" style="rounded=0;whiteSpace=wrap;html=1;fillColor=#ffe6cc;strokeColor=#d79b00;" parent="1" vertex="1">
          <mxGeometry x="720" y="360" width="120" height="40" as="geometry" />
        </mxCell>
        <mxCell id="29rTgdMoYmhlcVRQ41To-20" style="edgeStyle=orthogonalEdgeStyle;rounded=1;orthogonalLoop=1;jettySize=auto;html=1;entryX=0.636;entryY=0;entryDx=0;entryDy=0;curved=0;exitX=0;exitY=0.75;exitDx=0;exitDy=0;entryPerimeter=0;" parent="1" source="29rTgdMoYmhlcVRQ41To-22" target="29rTgdMoYmhlcVRQ41To-34" edge="1">
          <mxGeometry relative="1" as="geometry">
            <Array as="points">
              <mxPoint x="870" y="405" />
            </Array>
            <mxPoint x="1006" y="410" as="sourcePoint" />
          </mxGeometry>
        </mxCell>
        <mxCell id="29rTgdMoYmhlcVRQ41To-22" value="&lt;div&gt;VSDM Resource Server&lt;/div&gt;" style="rounded=0;whiteSpace=wrap;html=1;fillColor=#d5e8d4;strokeColor=#82b366;verticalAlign=top;" parent="1" vertex="1">
          <mxGeometry x="880" y="120" width="364.14" height="380" as="geometry" />
        </mxCell>
        <mxCell id="29rTgdMoYmhlcVRQ41To-26" style="edgeStyle=orthogonalEdgeStyle;rounded=0;orthogonalLoop=1;jettySize=auto;html=1;exitX=0.5;exitY=1;exitDx=0;exitDy=0;entryX=0.272;entryY=0;entryDx=0;entryDy=0;entryPerimeter=0;" parent="1" source="29rTgdMoYmhlcVRQ41To-28" target="29rTgdMoYmhlcVRQ41To-34" edge="1">
          <mxGeometry relative="1" as="geometry">
            <mxPoint x="790" y="519" as="targetPoint" />
          </mxGeometry>
        </mxCell>
        <mxCell id="29rTgdMoYmhlcVRQ41To-28" value="Telemetrie-Daten&amp;nbsp;&lt;span style=&quot;background-color: initial;&quot;&gt;Service&lt;/span&gt;" style="rounded=0;whiteSpace=wrap;html=1;fillColor=#ffe6cc;strokeColor=#d79b00;" parent="1" vertex="1">
          <mxGeometry x="730" y="440" width="120" height="40" as="geometry" />
        </mxCell>
        <mxCell id="29rTgdMoYmhlcVRQ41To-29" style="edgeStyle=orthogonalEdgeStyle;rounded=1;orthogonalLoop=1;jettySize=auto;html=1;curved=0;exitX=0;exitY=0.5;exitDx=0;exitDy=0;endArrow=none;endFill=0;" parent="1" source="29rTgdMoYmhlcVRQ41To-31" edge="1">
          <mxGeometry relative="1" as="geometry">
            <Array as="points">
              <mxPoint x="460" y="460" />
              <mxPoint x="460" y="590" />
              <mxPoint x="550" y="590" />
            </Array>
            <mxPoint x="550" y="610" as="targetPoint" />
          </mxGeometry>
        </mxCell>
        <mxCell id="29rTgdMoYmhlcVRQ41To-31" value="Cluster Management&lt;div&gt;Service&lt;/div&gt;" style="rounded=0;whiteSpace=wrap;html=1;fillColor=#ffe6cc;strokeColor=#d79b00;" parent="1" vertex="1">
          <mxGeometry x="570" y="440" width="120" height="40" as="geometry" />
        </mxCell>
        <mxCell id="29rTgdMoYmhlcVRQ41To-32" style="edgeStyle=orthogonalEdgeStyle;rounded=1;orthogonalLoop=1;jettySize=auto;html=1;entryX=1;entryY=0.5;entryDx=0;entryDy=0;curved=0;" parent="1" source="29rTgdMoYmhlcVRQ41To-34" target="29rTgdMoYmhlcVRQ41To-50" edge="1">
          <mxGeometry relative="1" as="geometry" />
        </mxCell>
        <mxCell id="29rTgdMoYmhlcVRQ41To-34" value="&lt;div&gt;Monitoring&lt;/div&gt;" style="rounded=0;whiteSpace=wrap;html=1;fillColor=#d5e8d4;strokeColor=#82b366;" parent="1" vertex="1">
          <mxGeometry x="730" y="520" width="220" height="40" as="geometry" />
        </mxCell>
        <mxCell id="29rTgdMoYmhlcVRQ41To-39" value="&lt;b&gt;Clientsystem&lt;/b&gt;" style="rounded=0;whiteSpace=wrap;html=1;fillColor=#EDFDEC;strokeColor=#82B366;verticalAlign=top;" parent="1" vertex="1">
          <mxGeometry x="200" y="120" width="120" height="450" as="geometry" />
        </mxCell>
        <mxCell id="29rTgdMoYmhlcVRQ41To-44" value="SM(C)-B" style="rounded=0;whiteSpace=wrap;html=1;fillColor=#eeeeee;strokeColor=#36393d;" parent="1" vertex="1">
          <mxGeometry x="85.24" y="220" width="65" height="40" as="geometry" />
        </mxCell>
        <mxCell id="29rTgdMoYmhlcVRQ41To-50" value="&lt;div&gt;BDE Lieferung&lt;/div&gt;" style="rounded=0;whiteSpace=wrap;html=1;fillColor=#d5e8d4;strokeColor=#82b366;" parent="1" vertex="1">
          <mxGeometry x="580" y="520" width="120" height="40" as="geometry" />
        </mxCell>
        <mxCell id="29rTgdMoYmhlcVRQ41To-53" value="&lt;div&gt;SIEM&lt;/div&gt;" style="rounded=0;whiteSpace=wrap;html=1;fillColor=#D5E8D4;strokeColor=#82B366;" parent="1" vertex="1">
          <mxGeometry x="980" y="520" width="120" height="40" as="geometry" />
        </mxCell>
        <mxCell id="29rTgdMoYmhlcVRQ41To-54" style="edgeStyle=orthogonalEdgeStyle;rounded=1;orthogonalLoop=1;jettySize=auto;html=1;entryX=0;entryY=0.5;entryDx=0;entryDy=0;curved=0;exitX=1;exitY=0.5;exitDx=0;exitDy=0;" parent="1" edge="1">
          <mxGeometry relative="1" as="geometry">
            <Array as="points">
              <mxPoint x="970" y="539.5" />
              <mxPoint x="970" y="539.5" />
            </Array>
            <mxPoint x="950" y="539.5" as="sourcePoint" />
            <mxPoint x="980" y="539.5" as="targetPoint" />
          </mxGeometry>
        </mxCell>
        <mxCell id="29rTgdMoYmhlcVRQ41To-60" value="" style="rounded=0;whiteSpace=wrap;html=1;fillColor=#ffe6cc;strokeColor=#d79b00;" parent="1" vertex="1">
          <mxGeometry x="10" y="609.75" width="80" height="20" as="geometry" />
        </mxCell>
        <mxCell id="29rTgdMoYmhlcVRQ41To-61" value="Zero Trust" style="text;html=1;align=right;verticalAlign=middle;whiteSpace=wrap;rounded=0;" parent="1" vertex="1">
          <mxGeometry x="100" y="609.75" width="70" height="20" as="geometry" />
        </mxCell>
        <mxCell id="29rTgdMoYmhlcVRQ41To-62" value="" style="rounded=0;whiteSpace=wrap;html=1;fillColor=#d5e8d4;strokeColor=#82b366;" parent="1" vertex="1">
          <mxGeometry x="10" y="629.75" width="80" height="20" as="geometry" />
        </mxCell>
        <mxCell id="29rTgdMoYmhlcVRQ41To-63" value="Anwendung" style="text;html=1;align=right;verticalAlign=middle;whiteSpace=wrap;rounded=0;" parent="1" vertex="1">
          <mxGeometry x="100" y="629.75" width="70" height="20" as="geometry" />
        </mxCell>
        <mxCell id="29rTgdMoYmhlcVRQ41To-64" value="" style="rounded=0;whiteSpace=wrap;html=1;fillColor=#f5f5f5;strokeColor=#666666;fontColor=#333333;" parent="1" vertex="1">
          <mxGeometry x="10" y="659.75" width="80" height="20" as="geometry" />
        </mxCell>
        <mxCell id="29rTgdMoYmhlcVRQ41To-65" value="Bestehende &lt;br&gt;Systeme" style="text;html=1;align=right;verticalAlign=middle;whiteSpace=wrap;rounded=0;" parent="1" vertex="1">
          <mxGeometry x="100" y="659.5" width="70" height="20" as="geometry" />
        </mxCell>
        <mxCell id="29rTgdMoYmhlcVRQ41To-66" style="edgeStyle=orthogonalEdgeStyle;rounded=1;orthogonalLoop=1;jettySize=auto;html=1;curved=0;" parent="1" edge="1">
          <mxGeometry relative="1" as="geometry">
            <mxPoint x="10" y="704.46" as="sourcePoint" />
            <mxPoint x="50" y="704.46" as="targetPoint" />
            <Array as="points">
              <mxPoint x="30" y="704.75" />
              <mxPoint x="30" y="704.75" />
            </Array>
          </mxGeometry>
        </mxCell>
        <mxCell id="29rTgdMoYmhlcVRQ41To-67" value="Kommunikation" style="text;html=1;align=right;verticalAlign=middle;whiteSpace=wrap;rounded=0;" parent="1" vertex="1">
          <mxGeometry x="80" y="694.75" width="90" height="20" as="geometry" />
        </mxCell>
        <mxCell id="29rTgdMoYmhlcVRQ41To-70" style="edgeStyle=orthogonalEdgeStyle;rounded=1;orthogonalLoop=1;jettySize=auto;html=1;entryX=0;entryY=0.25;entryDx=0;entryDy=0;curved=0;exitX=1.008;exitY=0.872;exitDx=0;exitDy=0;exitPerimeter=0;" parent="1" source="29rTgdMoYmhlcVRQ41To-76" target="29rTgdMoYmhlcVRQ41To-15" edge="1">
          <mxGeometry relative="1" as="geometry">
            <Array as="points">
              <mxPoint x="350" y="262" />
              <mxPoint x="350" y="370" />
            </Array>
          </mxGeometry>
        </mxCell>
        <mxCell id="29rTgdMoYmhlcVRQ41To-76" value="Trust Client&lt;div&gt;(ZT Client-Funkt)&lt;/div&gt;" style="rounded=0;whiteSpace=wrap;html=1;fillColor=#ffe6cc;strokeColor=#d79b00;" parent="1" vertex="1">
          <mxGeometry x="210" y="210" width="100" height="60" as="geometry" />
        </mxCell>
        <mxCell id="29rTgdMoYmhlcVRQ41To-77" value="PEP" style="rounded=0;whiteSpace=wrap;html=1;fillColor=none;verticalAlign=top;strokeColor=#FFB570;dashed=1;strokeWidth=2;" parent="1" vertex="1">
          <mxGeometry x="550" y="150" width="300" height="110" as="geometry" />
        </mxCell>
        <mxCell id="29rTgdMoYmhlcVRQ41To-78" value="HTTP-Proxy" style="rounded=0;whiteSpace=wrap;html=1;fillColor=#ffe6cc;strokeColor=#d79b00;" parent="1" vertex="1">
          <mxGeometry x="570" y="180" width="120" height="70" as="geometry" />
        </mxCell>
        <mxCell id="29rTgdMoYmhlcVRQ41To-81" style="edgeStyle=orthogonalEdgeStyle;rounded=1;orthogonalLoop=1;jettySize=auto;html=1;entryX=0;entryY=0.5;entryDx=0;entryDy=0;exitX=1;exitY=0.5;exitDx=0;exitDy=0;curved=0;" parent="1" source="29rTgdMoYmhlcVRQ41To-78" target="Veu_fZ2Ik_sSsAxx7kRS-4" edge="1">
          <mxGeometry relative="1" as="geometry">
            <Array as="points" />
            <mxPoint x="940" y="230" as="targetPoint" />
          </mxGeometry>
        </mxCell>
        <mxCell id="mJ-3obKRto_tGQeoeEUm-2" value="" style="edgeStyle=orthogonalEdgeStyle;rounded=0;orthogonalLoop=1;jettySize=auto;html=1;entryX=0.25;entryY=1;entryDx=0;entryDy=0;exitX=0.25;exitY=0;exitDx=0;exitDy=0;" parent="1" source="29rTgdMoYmhlcVRQ41To-85" target="29rTgdMoYmhlcVRQ41To-76" edge="1">
          <mxGeometry relative="1" as="geometry" />
        </mxCell>
        <mxCell id="eh9vk2TK4S6zh4HiUIDi-2" value="" style="edgeStyle=orthogonalEdgeStyle;rounded=0;orthogonalLoop=1;jettySize=auto;html=1;" parent="1" source="29rTgdMoYmhlcVRQ41To-85" target="eh9vk2TK4S6zh4HiUIDi-1" edge="1">
          <mxGeometry relative="1" as="geometry" />
        </mxCell>
        <mxCell id="29rTgdMoYmhlcVRQ41To-85" value="&lt;div&gt;VSDM&lt;/div&gt;&lt;div&gt;(Client-Funkt.)&lt;/div&gt;" style="rounded=0;whiteSpace=wrap;html=1;fillColor=#d5e8d4;strokeColor=#82b366;" parent="1" vertex="1">
          <mxGeometry x="210" y="310" width="100" height="40" as="geometry" />
        </mxCell>
        <mxCell id="mJ-3obKRto_tGQeoeEUm-1" value="" style="edgeStyle=orthogonalEdgeStyle;rounded=0;orthogonalLoop=1;jettySize=auto;html=1;startArrow=classic;startFill=1;endArrow=none;endFill=0;exitX=0.855;exitY=0;exitDx=0;exitDy=4.35;exitPerimeter=0;entryX=0.71;entryY=1.011;entryDx=0;entryDy=0;entryPerimeter=0;" parent="1" source="29rTgdMoYmhlcVRQ41To-87" target="29rTgdMoYmhlcVRQ41To-85" edge="1">
          <mxGeometry relative="1" as="geometry" />
        </mxCell>
        <mxCell id="RsZEj9lyrCXEbWaPnTaj-8" value="" style="edgeStyle=orthogonalEdgeStyle;rounded=0;orthogonalLoop=1;jettySize=auto;html=1;exitX=0.145;exitY=0;exitDx=0;exitDy=4.35;exitPerimeter=0;entryX=0.285;entryY=0.997;entryDx=0;entryDy=0;entryPerimeter=0;" parent="1" source="29rTgdMoYmhlcVRQ41To-87" target="29rTgdMoYmhlcVRQ41To-85" edge="1">
          <mxGeometry relative="1" as="geometry" />
        </mxCell>
        <mxCell id="29rTgdMoYmhlcVRQ41To-87" value="&lt;span style=&quot;background-color: initial;&quot;&gt;DB&lt;/span&gt;" style="shape=cylinder3;whiteSpace=wrap;html=1;boundedLbl=1;backgroundOutline=1;size=15;fillColor=#d5e8d4;strokeColor=#82b366;" parent="1" vertex="1">
          <mxGeometry x="230" y="380" width="60" height="70" as="geometry" />
        </mxCell>
        <mxCell id="29rTgdMoYmhlcVRQ41To-37" style="edgeStyle=orthogonalEdgeStyle;rounded=1;orthogonalLoop=1;jettySize=auto;html=1;entryX=1;entryY=0.5;entryDx=0;entryDy=0;curved=0;exitX=0;exitY=0.5;exitDx=0;exitDy=0;" parent="1" source="29rTgdMoYmhlcVRQ41To-76" target="29rTgdMoYmhlcVRQ41To-44" edge="1">
          <mxGeometry relative="1" as="geometry">
            <mxPoint x="240" y="169" as="sourcePoint" />
          </mxGeometry>
        </mxCell>
        <mxCell id="RsZEj9lyrCXEbWaPnTaj-5" value="" style="edgeStyle=orthogonalEdgeStyle;rounded=0;orthogonalLoop=1;jettySize=auto;html=1;" parent="1" source="RsZEj9lyrCXEbWaPnTaj-1" target="29rTgdMoYmhlcVRQ41To-87" edge="1">
          <mxGeometry relative="1" as="geometry" />
        </mxCell>
        <mxCell id="RsZEj9lyrCXEbWaPnTaj-6" value="PoPP-Token" style="edgeLabel;html=1;align=center;verticalAlign=middle;resizable=0;points=[];labelBackgroundColor=none;" parent="RsZEj9lyrCXEbWaPnTaj-5" vertex="1" connectable="0">
          <mxGeometry x="-0.1481" relative="1" as="geometry">
            <mxPoint as="offset" />
          </mxGeometry>
        </mxCell>
        <mxCell id="RsZEj9lyrCXEbWaPnTaj-1" value="&lt;div&gt;PoPP&lt;/div&gt;&lt;div&gt;(Client-Funkt.)&lt;/div&gt;" style="rounded=0;whiteSpace=wrap;html=1;fillColor=none;dashed=1;" parent="1" vertex="1">
          <mxGeometry x="210" y="505" width="100" height="40" as="geometry" />
        </mxCell>
        <mxCell id="Ux8lGl-wnyfo4ktNm6vA-5" value="" style="endArrow=none;html=1;rounded=0;entryX=0;entryY=0;entryDx=0;entryDy=15;entryPerimeter=0;exitX=1;exitY=0;exitDx=0;exitDy=0;" parent="1" source="WYYAO5a9UxV3ZW57-LGB-9" target="29rTgdMoYmhlcVRQ41To-87" edge="1">
          <mxGeometry width="50" height="50" relative="1" as="geometry">
            <mxPoint x="80" y="300" as="sourcePoint" />
            <mxPoint x="620" y="550" as="targetPoint" />
          </mxGeometry>
        </mxCell>
        <mxCell id="Ux8lGl-wnyfo4ktNm6vA-6" value="" style="endArrow=none;html=1;rounded=0;entryX=0;entryY=1;entryDx=0;entryDy=-15;entryPerimeter=0;exitX=1.001;exitY=0.992;exitDx=0;exitDy=0;exitPerimeter=0;" parent="1" source="WYYAO5a9UxV3ZW57-LGB-15" target="29rTgdMoYmhlcVRQ41To-87" edge="1">
          <mxGeometry width="50" height="50" relative="1" as="geometry">
            <mxPoint x="79.43000000000006" y="449.74" as="sourcePoint" />
            <mxPoint x="135.36" y="440" as="targetPoint" />
          </mxGeometry>
        </mxCell>
        <mxCell id="Ux8lGl-wnyfo4ktNm6vA-14" value="" style="rounded=0;whiteSpace=wrap;html=1;fillColor=none;strokeColor=#FF6666;align=right;" parent="1" vertex="1">
          <mxGeometry x="310" y="220" width="260" height="20" as="geometry" />
        </mxCell>
        <mxCell id="Ux8lGl-wnyfo4ktNm6vA-15" value="&lt;span style=&quot;text-align: right;&quot;&gt;&lt;font color=&quot;#ff6666&quot;&gt;VAU-Kanal@&lt;/font&gt;&lt;/span&gt;&lt;div&gt;&lt;span style=&quot;text-align: right;&quot;&gt;&lt;font color=&quot;#ff6666&quot;&gt;Komponenten-PKI TI&lt;/font&gt;&lt;/span&gt;&lt;/div&gt;" style="text;html=1;align=center;verticalAlign=middle;whiteSpace=wrap;rounded=0;" parent="1" vertex="1">
          <mxGeometry x="380" y="240" width="90" height="56" as="geometry" />
        </mxCell>
        <mxCell id="Ux8lGl-wnyfo4ktNm6vA-16" value="" style="edgeStyle=orthogonalEdgeStyle;rounded=0;orthogonalLoop=1;jettySize=auto;html=1;entryX=0.75;entryY=0;entryDx=0;entryDy=0;exitX=0.75;exitY=1;exitDx=0;exitDy=0;" parent="1" source="29rTgdMoYmhlcVRQ41To-76" target="29rTgdMoYmhlcVRQ41To-85" edge="1">
          <mxGeometry relative="1" as="geometry">
            <mxPoint x="245" y="320" as="sourcePoint" />
            <mxPoint x="245" y="280" as="targetPoint" />
          </mxGeometry>
        </mxCell>
        <mxCell id="29rTgdMoYmhlcVRQ41To-35" style="edgeStyle=orthogonalEdgeStyle;rounded=1;orthogonalLoop=1;jettySize=auto;html=1;curved=0;" parent="1" edge="1">
          <mxGeometry relative="1" as="geometry">
            <Array as="points">
              <mxPoint x="310" y="230" />
            </Array>
            <mxPoint x="570" y="230" as="targetPoint" />
            <mxPoint x="310" y="230" as="sourcePoint" />
          </mxGeometry>
        </mxCell>
        <mxCell id="Ux8lGl-wnyfo4ktNm6vA-19" value="&lt;span style=&quot;&quot;&gt;VSDM-Policy&lt;/span&gt;" style="sketch=0;pointerEvents=1;shadow=0;dashed=0;html=1;strokeColor=none;fillColor=#82B366;labelPosition=center;verticalLabelPosition=bottom;verticalAlign=top;outlineConnect=0;align=center;shape=mxgraph.office.concepts.document;labelBackgroundColor=#FFFFFF;" parent="1" vertex="1">
          <mxGeometry x="435" y="668.38" width="30" height="35" as="geometry" />
        </mxCell>
        <mxCell id="Ux8lGl-wnyfo4ktNm6vA-20" value="Zugriffs-protokoll" style="shape=cylinder3;whiteSpace=wrap;html=1;boundedLbl=1;backgroundOutline=1;size=15;fillColor=#d5e8d4;strokeColor=#000000;" parent="1" vertex="1">
          <mxGeometry x="900" y="400" width="70" height="82.5" as="geometry" />
        </mxCell>
        <mxCell id="Ux8lGl-wnyfo4ktNm6vA-22" value="FHIR-Fassade" style="rounded=1;whiteSpace=wrap;html=1;fillColor=none;" parent="1" vertex="1">
          <mxGeometry x="1110" y="230" width="100" height="40" as="geometry" />
        </mxCell>
        <mxCell id="PffGhIVuYgeO10GvfS6d-1" value="" style="edgeStyle=orthogonalEdgeStyle;rounded=0;orthogonalLoop=1;jettySize=auto;html=1;entryX=0.5;entryY=1;entryDx=0;entryDy=0;" parent="1" source="Ux8lGl-wnyfo4ktNm6vA-23" target="Ux8lGl-wnyfo4ktNm6vA-22" edge="1">
          <mxGeometry relative="1" as="geometry" />
        </mxCell>
        <mxCell id="Ux8lGl-wnyfo4ktNm6vA-23" value="Mapping-Regeln&amp;nbsp;&lt;br&gt;gemäß FHIR-Profile:&lt;br&gt;&amp;nbsp;VSDMPatient,&lt;div&gt;VSDMCoverage,&lt;/div&gt;&lt;div&gt;VSDMBundle&lt;/div&gt;" style="sketch=0;pointerEvents=1;shadow=0;dashed=0;html=1;strokeColor=none;fillColor=#000000;labelPosition=center;verticalLabelPosition=bottom;verticalAlign=top;outlineConnect=0;align=center;shape=mxgraph.office.concepts.document;labelBackgroundColor=none;" parent="1" vertex="1">
          <mxGeometry x="1145" y="300" width="30" height="35" as="geometry" />
        </mxCell>
        <mxCell id="Ux8lGl-wnyfo4ktNm6vA-30" value="" style="edgeStyle=orthogonalEdgeStyle;rounded=0;orthogonalLoop=1;jettySize=auto;html=1;exitX=0.5;exitY=1;exitDx=0;exitDy=0;" parent="1" source="Veu_fZ2Ik_sSsAxx7kRS-3" target="Ux8lGl-wnyfo4ktNm6vA-20" edge="1">
          <mxGeometry relative="1" as="geometry">
            <mxPoint x="934.7099999999996" y="362.32000000000016" as="sourcePoint" />
            <mxPoint x="850" y="430.5" as="targetPoint" />
          </mxGeometry>
        </mxCell>
        <mxCell id="Ux8lGl-wnyfo4ktNm6vA-32" value="" style="rounded=0;orthogonalLoop=1;jettySize=auto;html=1;endArrow=halfCircle;endFill=0;endSize=6;strokeWidth=1;sketch=0;entryX=0;entryY=1;entryDx=0;entryDy=0;" parent="1" source="Ux8lGl-wnyfo4ktNm6vA-22" edge="1">
          <mxGeometry relative="1" as="geometry">
            <mxPoint x="1244.1400000000003" y="250.5" as="sourcePoint" />
            <mxPoint x="1310" y="250" as="targetPoint" />
          </mxGeometry>
        </mxCell>
        <mxCell id="Ux8lGl-wnyfo4ktNm6vA-34" value="" style="ellipse;whiteSpace=wrap;html=1;align=center;aspect=fixed;fillColor=none;strokeColor=none;resizable=0;perimeter=centerPerimeter;rotatable=0;allowArrows=0;points=[];outlineConnect=1;" parent="1" vertex="1">
          <mxGeometry x="1420" y="160" width="10" height="10" as="geometry" />
        </mxCell>
        <mxCell id="Ux8lGl-wnyfo4ktNm6vA-43" value="" style="rounded=0;orthogonalLoop=1;jettySize=auto;html=1;endArrow=halfCircle;endFill=0;endSize=6;strokeWidth=1;sketch=0;exitX=1;exitY=0.5;exitDx=0;exitDy=0;exitPerimeter=0;" parent="1" source="Ux8lGl-wnyfo4ktNm6vA-20" edge="1">
          <mxGeometry relative="1" as="geometry">
            <mxPoint x="965" y="441.8800000000001" as="sourcePoint" />
            <mxPoint x="1309" y="440.63" as="targetPoint" />
          </mxGeometry>
        </mxCell>
        <mxCell id="Ux8lGl-wnyfo4ktNm6vA-45" value="&lt;span style=&quot;color: rgb(0, 0, 0); font-family: Helvetica; font-size: 11px; font-style: normal; font-variant-ligatures: normal; font-variant-caps: normal; font-weight: 400; letter-spacing: normal; orphans: 2; text-align: center; text-indent: 0px; text-transform: none; widows: 2; word-spacing: 0px; -webkit-text-stroke-width: 0px; white-space: nowrap; background-color: rgb(255, 255, 255); text-decoration-thickness: initial; text-decoration-style: initial; text-decoration-color: initial; display: inline !important; float: none;&quot;&gt;KTR-&lt;div style=&quot;font-size: 12px; text-wrap: wrap;&quot;&gt;&lt;span style=&quot;font-size: 11px; text-wrap: nowrap;&quot;&gt;Bestandssysteme&lt;/span&gt;&lt;/div&gt;(Versicherten-API)&lt;/span&gt;" style="text;html=1;align=center;verticalAlign=middle;whiteSpace=wrap;rounded=0;" parent="1" vertex="1">
          <mxGeometry x="1310" y="416.25" width="100" height="50" as="geometry" />
        </mxCell>
        <mxCell id="4ok_WFRXBlFDNo3Pk6dw-8" value="" style="rounded=0;orthogonalLoop=1;jettySize=auto;html=1;endArrow=halfCircle;endFill=0;endSize=6;strokeWidth=1;sketch=0;exitX=0.5;exitY=1;exitDx=0;exitDy=0;entryX=0.5;entryY=0;entryDx=0;entryDy=0;" parent="1" source="29rTgdMoYmhlcVRQ41To-50" target="4ok_WFRXBlFDNo3Pk6dw-12" edge="1">
          <mxGeometry relative="1" as="geometry">
            <mxPoint x="640.15" y="566.5" as="sourcePoint" />
            <mxPoint x="639.83" y="626" as="targetPoint" />
          </mxGeometry>
        </mxCell>
        <mxCell id="4ok_WFRXBlFDNo3Pk6dw-9" value="" style="rounded=0;orthogonalLoop=1;jettySize=auto;html=1;endArrow=halfCircle;endFill=0;endSize=6;strokeWidth=1;sketch=0;exitX=0.5;exitY=1;exitDx=0;exitDy=0;entryX=0.504;entryY=-0.09;entryDx=0;entryDy=0;entryPerimeter=0;" parent="1" source="29rTgdMoYmhlcVRQ41To-53" target="4ok_WFRXBlFDNo3Pk6dw-13" edge="1">
          <mxGeometry relative="1" as="geometry">
            <mxPoint x="1040.0036477987421" y="560" as="sourcePoint" />
            <mxPoint x="1039.36" y="619.5" as="targetPoint" />
          </mxGeometry>
        </mxCell>
        <mxCell id="4ok_WFRXBlFDNo3Pk6dw-10" value="" style="rounded=0;orthogonalLoop=1;jettySize=auto;html=1;endArrow=halfCircle;endFill=0;endSize=6;strokeWidth=1;sketch=0;entryX=0.5;entryY=0;entryDx=0;entryDy=0;" parent="1" target="4ok_WFRXBlFDNo3Pk6dw-14" edge="1">
          <mxGeometry relative="1" as="geometry">
            <mxPoint x="550" y="606" as="sourcePoint" />
            <mxPoint x="550" y="625.75" as="targetPoint" />
          </mxGeometry>
        </mxCell>
        <mxCell id="4ok_WFRXBlFDNo3Pk6dw-11" value="" style="rounded=0;orthogonalLoop=1;jettySize=auto;html=1;endArrow=halfCircle;endFill=0;endSize=6;strokeWidth=1;sketch=0;entryX=0.5;entryY=0;entryDx=0;entryDy=0;" parent="1" target="4ok_WFRXBlFDNo3Pk6dw-15" edge="1">
          <mxGeometry relative="1" as="geometry">
            <mxPoint x="450" y="606.25" as="sourcePoint" />
            <mxPoint x="450" y="620" as="targetPoint" />
          </mxGeometry>
        </mxCell>
        <mxCell id="4ok_WFRXBlFDNo3Pk6dw-12" value="BDE" style="text;html=1;align=center;verticalAlign=middle;whiteSpace=wrap;rounded=0;" parent="1" vertex="1">
          <mxGeometry x="610" y="629" width="60" height="14" as="geometry" />
        </mxCell>
        <mxCell id="4ok_WFRXBlFDNo3Pk6dw-13" value="TI SIEM" style="text;html=1;align=center;verticalAlign=middle;whiteSpace=wrap;rounded=0;" parent="1" vertex="1">
          <mxGeometry x="1010" y="630" width="60" height="14" as="geometry" />
        </mxCell>
        <mxCell id="4ok_WFRXBlFDNo3Pk6dw-14" value="Zero Trust Cluster Git&amp;nbsp;&lt;span style=&quot;background-color: initial;&quot;&gt;Repository&lt;/span&gt;" style="text;html=1;align=center;verticalAlign=middle;whiteSpace=wrap;rounded=0;" parent="1" vertex="1">
          <mxGeometry x="500" y="630" width="100" height="30" as="geometry" />
        </mxCell>
        <mxCell id="4ok_WFRXBlFDNo3Pk6dw-15" value="PIP und PAP Service" style="text;html=1;align=center;verticalAlign=middle;whiteSpace=wrap;rounded=0;" parent="1" vertex="1">
          <mxGeometry x="400" y="629.75" width="100" height="30" as="geometry" />
        </mxCell>
        <mxCell id="Veu_fZ2Ik_sSsAxx7kRS-3" value="Zugriffs-protokollierung" style="rounded=1;whiteSpace=wrap;html=1;fillColor=none;" parent="1" vertex="1">
          <mxGeometry x="890" y="277.63" width="90" height="49.87" as="geometry" />
        </mxCell>
        <mxCell id="JMPoNBZ3KFbZMQvcs8hZ-1" value="" style="edgeStyle=orthogonalEdgeStyle;rounded=1;orthogonalLoop=1;jettySize=auto;html=1;entryX=0.5;entryY=0;entryDx=0;entryDy=0;curved=0;exitX=0.321;exitY=0.996;exitDx=0;exitDy=0;exitPerimeter=0;" parent="1" source="Veu_fZ2Ik_sSsAxx7kRS-4" target="Veu_fZ2Ik_sSsAxx7kRS-3" edge="1">
          <mxGeometry relative="1" as="geometry">
            <mxPoint x="937.5" y="245" as="sourcePoint" />
          </mxGeometry>
        </mxCell>
        <mxCell id="Veu_fZ2Ik_sSsAxx7kRS-4" value="VSDService&lt;span style=&quot;background-color: initial;&quot;&gt;-API&lt;/span&gt;" style="rounded=1;whiteSpace=wrap;html=1;fillColor=none;" parent="1" vertex="1">
          <mxGeometry x="880" y="185" width="170" height="60" as="geometry" />
        </mxCell>
        <mxCell id="Veu_fZ2Ik_sSsAxx7kRS-8" value="" style="edgeStyle=orthogonalEdgeStyle;rounded=1;orthogonalLoop=1;jettySize=auto;html=1;entryX=0;entryY=0.5;entryDx=0;entryDy=0;startArrow=none;startFill=0;curved=0;exitX=1;exitY=0.75;exitDx=0;exitDy=0;" parent="1" source="Veu_fZ2Ik_sSsAxx7kRS-4" target="Ux8lGl-wnyfo4ktNm6vA-22" edge="1">
          <mxGeometry relative="1" as="geometry">
            <Array as="points">
              <mxPoint x="1080" y="230" />
              <mxPoint x="1080" y="250" />
            </Array>
            <mxPoint x="1050" y="215" as="sourcePoint" />
            <mxPoint x="1115" y="240" as="targetPoint" />
          </mxGeometry>
        </mxCell>
        <mxCell id="USjoI9_iPOMPHp6QYIuY-1" value="" style="rounded=0;orthogonalLoop=1;jettySize=auto;html=1;endArrow=halfCircle;endFill=0;endSize=6;strokeWidth=1;sketch=0;dashed=1;exitX=0.75;exitY=1;exitDx=0;exitDy=0;entryX=0.5;entryY=0;entryDx=0;entryDy=0;" parent="1" source="RsZEj9lyrCXEbWaPnTaj-1" target="USjoI9_iPOMPHp6QYIuY-2" edge="1">
          <mxGeometry relative="1" as="geometry">
            <mxPoint x="260" y="545" as="sourcePoint" />
            <mxPoint x="285" y="630" as="targetPoint" />
          </mxGeometry>
        </mxCell>
        <mxCell id="USjoI9_iPOMPHp6QYIuY-2" value="PoPP-Dienst" style="text;html=1;align=center;verticalAlign=middle;whiteSpace=wrap;rounded=0;" parent="1" vertex="1">
          <mxGeometry x="255" y="629.75" width="60" height="30" as="geometry" />
        </mxCell>
        <mxCell id="UZmVdI0JqOaVXZEGuSlR-1" value="" style="rounded=0;orthogonalLoop=1;jettySize=auto;html=1;endArrow=halfCircle;endFill=0;endSize=6;strokeWidth=1;sketch=0;exitX=0.25;exitY=1;exitDx=0;exitDy=0;entryX=0.5;entryY=0;entryDx=0;entryDy=0;" parent="1" source="29rTgdMoYmhlcVRQ41To-39" target="UZmVdI0JqOaVXZEGuSlR-2" edge="1">
          <mxGeometry relative="1" as="geometry">
            <mxPoint x="225" y="570" as="sourcePoint" />
            <mxPoint x="230" y="620" as="targetPoint" />
          </mxGeometry>
        </mxCell>
        <mxCell id="UZmVdI0JqOaVXZEGuSlR-2" value="DNS" style="text;html=1;align=center;verticalAlign=middle;whiteSpace=wrap;rounded=0;" parent="1" vertex="1">
          <mxGeometry x="200" y="630" width="60" height="10" as="geometry" />
        </mxCell>
        <mxCell id="UZmVdI0JqOaVXZEGuSlR-3" style="edgeStyle=orthogonalEdgeStyle;rounded=1;orthogonalLoop=1;jettySize=auto;html=1;exitX=0;exitY=0.75;exitDx=0;exitDy=0;curved=0;endArrow=none;endFill=0;" parent="1" source="29rTgdMoYmhlcVRQ41To-15" edge="1">
          <mxGeometry relative="1" as="geometry">
            <Array as="points">
              <mxPoint x="370" y="390" />
            </Array>
            <mxPoint x="370" y="610" as="targetPoint" />
            <mxPoint x="520" y="335" as="sourcePoint" />
          </mxGeometry>
        </mxCell>
        <mxCell id="UZmVdI0JqOaVXZEGuSlR-5" value="" style="rounded=0;orthogonalLoop=1;jettySize=auto;html=1;endArrow=halfCircle;endFill=0;endSize=6;strokeWidth=1;sketch=0;entryX=0.5;entryY=0;entryDx=0;entryDy=0;" parent="1" target="UZmVdI0JqOaVXZEGuSlR-6" edge="1">
          <mxGeometry relative="1" as="geometry">
            <mxPoint x="369.94999999999993" y="610" as="sourcePoint" />
            <mxPoint x="370" y="620" as="targetPoint" />
          </mxGeometry>
        </mxCell>
        <mxCell id="UZmVdI0JqOaVXZEGuSlR-6" value="OCSP TSPX.509nQ&lt;div&gt;SMC-B&lt;/div&gt;" style="text;html=1;align=center;verticalAlign=middle;whiteSpace=wrap;rounded=0;" parent="1" vertex="1">
          <mxGeometry x="320" y="629.75" width="100" height="45" as="geometry" />
        </mxCell>
        <mxCell id="UZmVdI0JqOaVXZEGuSlR-7" style="edgeStyle=orthogonalEdgeStyle;rounded=1;orthogonalLoop=1;jettySize=auto;html=1;exitX=-0.002;exitY=0.428;exitDx=0;exitDy=0;curved=0;endArrow=none;endFill=0;exitPerimeter=0;" parent="1" source="29rTgdMoYmhlcVRQ41To-78" edge="1">
          <mxGeometry relative="1" as="geometry">
            <Array as="points">
              <mxPoint x="360" y="210" />
            </Array>
            <mxPoint x="360" y="80" as="targetPoint" />
            <mxPoint x="590" y="340" as="sourcePoint" />
          </mxGeometry>
        </mxCell>
        <mxCell id="UZmVdI0JqOaVXZEGuSlR-9" style="edgeStyle=orthogonalEdgeStyle;rounded=1;orthogonalLoop=1;jettySize=auto;html=1;exitX=0;exitY=0.25;exitDx=0;exitDy=0;curved=0;endArrow=none;endFill=0;" parent="1" source="29rTgdMoYmhlcVRQ41To-78" edge="1">
          <mxGeometry relative="1" as="geometry">
            <Array as="points">
              <mxPoint x="450" y="198" />
              <mxPoint x="450" y="80" />
            </Array>
            <mxPoint x="450" y="80" as="targetPoint" />
            <mxPoint x="665" y="210" as="sourcePoint" />
          </mxGeometry>
        </mxCell>
        <mxCell id="UZmVdI0JqOaVXZEGuSlR-11" value="&lt;div&gt;PoPP-Token Validierung&lt;/div&gt;&lt;div&gt;- Federation Master (&lt;span style=&quot;background-color: initial;&quot;&gt;Entity Statement)&lt;/span&gt;&lt;/div&gt;&lt;div&gt;- PoPP-Service (JWKS)&lt;/div&gt;" style="text;html=1;align=right;verticalAlign=middle;whiteSpace=wrap;rounded=0;" parent="1" vertex="1">
          <mxGeometry x="180" y="10" width="215" height="50" as="geometry" />
        </mxCell>
        <mxCell id="UZmVdI0JqOaVXZEGuSlR-12" value="OCSP und OCSP-Stapling&lt;br&gt;- Komponenten-CA TI&amp;nbsp;&lt;span style=&quot;background-color: initial;&quot;&gt;(VAU-Kanal)&lt;/span&gt;&lt;div&gt;&lt;span style=&quot;background-color: initial;&quot;&gt;-&amp;nbsp;&lt;/span&gt;&lt;span style=&quot;background-color: initial;&quot;&gt;Internet-CA&amp;nbsp;&lt;/span&gt;&lt;span style=&quot;background-color: initial;&quot;&gt;(TLS)&lt;/span&gt;&lt;/div&gt;" style="text;html=1;align=left;verticalAlign=middle;whiteSpace=wrap;rounded=0;" parent="1" vertex="1">
          <mxGeometry x="420" y="15" width="190" height="45" as="geometry" />
        </mxCell>
        <mxCell id="UZmVdI0JqOaVXZEGuSlR-13" value="" style="rounded=0;orthogonalLoop=1;jettySize=auto;html=1;endArrow=halfCircle;endFill=0;endSize=6;strokeWidth=1;sketch=0;" parent="1" edge="1">
          <mxGeometry relative="1" as="geometry">
            <mxPoint x="449.81" y="80" as="sourcePoint" />
            <mxPoint x="449.5199999999999" y="59.75" as="targetPoint" />
          </mxGeometry>
        </mxCell>
        <mxCell id="UZmVdI0JqOaVXZEGuSlR-14" value="" style="rounded=0;orthogonalLoop=1;jettySize=auto;html=1;endArrow=halfCircle;endFill=0;endSize=6;strokeWidth=1;sketch=0;" parent="1" edge="1">
          <mxGeometry relative="1" as="geometry">
            <mxPoint x="360.15" y="80.25" as="sourcePoint" />
            <mxPoint x="359.8599999999999" y="60" as="targetPoint" />
          </mxGeometry>
        </mxCell>
        <mxCell id="WYYAO5a9UxV3ZW57-LGB-9" value="&lt;font style=&quot;font-size: 14px;&quot;&gt;Datenbank&lt;/font&gt;" style="swimlane;fontStyle=0;childLayout=stackLayout;horizontal=1;startSize=40;horizontalStack=0;resizeParent=1;resizeParentMax=0;resizeLast=0;collapsible=1;marginBottom=0;whiteSpace=wrap;html=1;" parent="1" vertex="1">
          <mxGeometry y="400" width="160" height="160" as="geometry" />
        </mxCell>
        <mxCell id="WYYAO5a9UxV3ZW57-LGB-10" value="&lt;span style=&quot;background-color: initial; font-size: 12px;&quot;&gt;Versichertenstammdaten&lt;/span&gt;" style="text;strokeColor=default;fillColor=none;align=left;verticalAlign=middle;spacingLeft=2;spacingRight=2;overflow=hidden;points=[[0,0.5],[1,0.5]];portConstraint=eastwest;rotatable=0;whiteSpace=wrap;html=1;fontSize=12;fontColor=#000000;" parent="WYYAO5a9UxV3ZW57-LGB-9" vertex="1">
          <mxGeometry y="40" width="160" height="20" as="geometry" />
        </mxCell>
        <mxCell id="WYYAO5a9UxV3ZW57-LGB-11" value="&lt;span style=&quot;background-color: initial; font-size: 12px;&quot;&gt;&lt;font face=&quot;Helvetica&quot; style=&quot;font-size: 12px;&quot;&gt;VSD-eTag&lt;/font&gt;&lt;/span&gt;" style="text;strokeColor=default;fillColor=none;align=left;verticalAlign=middle;spacingLeft=2;spacingRight=2;overflow=hidden;points=[[0,0.5],[1,0.5]];portConstraint=eastwest;rotatable=0;whiteSpace=wrap;html=1;fontSize=12;" parent="WYYAO5a9UxV3ZW57-LGB-9" vertex="1">
          <mxGeometry y="60" width="160" height="20" as="geometry" />
        </mxCell>
        <mxCell id="WYYAO5a9UxV3ZW57-LGB-12" value="&lt;span style=&quot;background-color: initial; font-size: 12px;&quot;&gt;Prüfungsnachweis&lt;/span&gt;" style="text;strokeColor=default;fillColor=none;align=left;verticalAlign=middle;spacingLeft=2;spacingRight=2;overflow=hidden;points=[[0,0.5],[1,0.5]];portConstraint=eastwest;rotatable=0;whiteSpace=wrap;html=1;fontSize=12;fontColor=#000000;" parent="WYYAO5a9UxV3ZW57-LGB-9" vertex="1">
          <mxGeometry y="80" width="160" height="20" as="geometry" />
        </mxCell>
        <mxCell id="WYYAO5a9UxV3ZW57-LGB-13" value="&lt;span style=&quot;font-size: 12px;&quot;&gt;&lt;font face=&quot;Helvetica&quot; style=&quot;font-size: 12px;&quot;&gt;PoPP-Token&lt;/font&gt;&lt;/span&gt;" style="text;strokeColor=default;fillColor=none;align=left;verticalAlign=middle;spacingLeft=2;spacingRight=2;overflow=hidden;points=[[0,0.5],[1,0.5]];portConstraint=eastwest;rotatable=0;whiteSpace=wrap;html=1;fontSize=12;fontColor=#000000;" parent="WYYAO5a9UxV3ZW57-LGB-9" vertex="1">
          <mxGeometry y="100" width="160" height="20" as="geometry" />
        </mxCell>
        <mxCell id="WYYAO5a9UxV3ZW57-LGB-14" value="Krankenversichertennummer" style="text;strokeColor=default;fillColor=none;align=left;verticalAlign=middle;spacingLeft=2;spacingRight=2;overflow=hidden;points=[[0,0.5],[1,0.5]];portConstraint=eastwest;rotatable=0;whiteSpace=wrap;html=1;fontSize=12;" parent="WYYAO5a9UxV3ZW57-LGB-9" vertex="1">
          <mxGeometry y="120" width="160" height="20" as="geometry" />
        </mxCell>
        <mxCell id="WYYAO5a9UxV3ZW57-LGB-15" value="&lt;font face=&quot;Helvetica&quot; style=&quot;font-size: 12px;&quot;&gt;&lt;span style=&quot;font-size: 12px;&quot;&gt;Institutionskennung KTR&lt;/span&gt;&lt;/font&gt;" style="text;strokeColor=default;fillColor=none;align=left;verticalAlign=middle;spacingLeft=2;spacingRight=2;overflow=hidden;points=[[0,0.5],[1,0.5]];portConstraint=eastwest;rotatable=0;whiteSpace=wrap;html=1;fontSize=12;fontColor=#000000;" parent="WYYAO5a9UxV3ZW57-LGB-9" vertex="1">
          <mxGeometry y="140" width="160" height="20" as="geometry" />
        </mxCell>
        <mxCell id="WGu5ZAYpoWvmzztNCjQf-4" value="TLS@Internet-PKI" style="rounded=1;whiteSpace=wrap;html=1;fillColor=default;strokeColor=default;dashed=1;" parent="1" vertex="1">
          <mxGeometry x="350" y="223" width="115" height="14" as="geometry" />
        </mxCell>
        <mxCell id="7Tdx6mqpSsqZb4YxP3zN-1" value="Client Registry" style="rounded=0;whiteSpace=wrap;html=1;fillColor=#ffe6cc;strokeColor=#d79b00;" parent="1" vertex="1">
          <mxGeometry x="570" y="300" width="120" height="40" as="geometry" />
        </mxCell>
        <mxCell id="eh9vk2TK4S6zh4HiUIDi-1" value="eGK" style="rounded=0;whiteSpace=wrap;html=1;fillColor=#eeeeee;strokeColor=#36393d;" parent="1" vertex="1">
          <mxGeometry x="85.24" y="310" width="65" height="40" as="geometry" />
        </mxCell>
        <mxCell id="Sa-0AyuytdpOppMepQPU-1" value="&lt;span style=&quot;&quot;&gt;VSDM- und Betreiber-&lt;/span&gt;&lt;div&gt;&lt;span style=&quot;&quot;&gt;spezifische&lt;br&gt;Konfigurationsdateien&lt;/span&gt;&lt;/div&gt;" style="sketch=0;pointerEvents=1;shadow=0;dashed=0;html=1;strokeColor=none;fillColor=#82B366;labelPosition=center;verticalLabelPosition=bottom;verticalAlign=top;outlineConnect=0;align=center;shape=mxgraph.office.concepts.document;labelBackgroundColor=#FFFFFF;" parent="1" vertex="1">
          <mxGeometry x="550" y="668.38" width="30" height="35" as="geometry" />
        </mxCell>
        <mxCell id="IEj9VLfv4YksJk9ZvM38-1" value="VSD-Aktualitätsprüfung" style="rounded=1;whiteSpace=wrap;html=1;fillColor=none;" parent="1" vertex="1">
          <mxGeometry x="1110" y="160" width="100" height="40" as="geometry" />
        </mxCell>
        <mxCell id="IEj9VLfv4YksJk9ZvM38-3" value="Erstellung&lt;div&gt;Prüfungs-nachweis&lt;/div&gt;" style="rounded=1;whiteSpace=wrap;html=1;fillColor=none;" parent="1" vertex="1">
          <mxGeometry x="990" y="277.63" width="60" height="49.87" as="geometry" />
        </mxCell>
        <mxCell id="IEj9VLfv4YksJk9ZvM38-4" value="" style="edgeStyle=orthogonalEdgeStyle;rounded=1;orthogonalLoop=1;jettySize=auto;html=1;startArrow=none;startFill=0;curved=0;exitX=0.823;exitY=1;exitDx=0;exitDy=0;exitPerimeter=0;entryX=0.5;entryY=0;entryDx=0;entryDy=0;" parent="1" source="Veu_fZ2Ik_sSsAxx7kRS-4" target="IEj9VLfv4YksJk9ZvM38-3" edge="1">
          <mxGeometry relative="1" as="geometry">
            <Array as="points">
              <mxPoint x="1020" y="247" />
              <mxPoint x="1020" y="247" />
            </Array>
            <mxPoint x="1060" y="240" as="sourcePoint" />
            <mxPoint x="1080" y="200" as="targetPoint" />
          </mxGeometry>
        </mxCell>
        <mxCell id="IEj9VLfv4YksJk9ZvM38-5" value="" style="edgeStyle=orthogonalEdgeStyle;rounded=1;orthogonalLoop=1;jettySize=auto;html=1;startArrow=none;startFill=0;curved=0;exitX=1;exitY=0.25;exitDx=0;exitDy=0;" parent="1" source="Veu_fZ2Ik_sSsAxx7kRS-4" target="IEj9VLfv4YksJk9ZvM38-1" edge="1">
          <mxGeometry relative="1" as="geometry">
            <Array as="points">
              <mxPoint x="1080" y="200" />
              <mxPoint x="1080" y="180" />
            </Array>
            <mxPoint x="1060" y="210" as="sourcePoint" />
            <mxPoint x="1080" y="200" as="targetPoint" />
          </mxGeometry>
        </mxCell>
        <mxCell id="IEj9VLfv4YksJk9ZvM38-11" value="&lt;span style=&quot;color: rgb(0, 0, 0); font-family: Helvetica; font-size: 11px; font-style: normal; font-variant-ligatures: normal; font-variant-caps: normal; font-weight: 400; letter-spacing: normal; orphans: 2; text-align: center; text-indent: 0px; text-transform: none; widows: 2; word-spacing: 0px; -webkit-text-stroke-width: 0px; white-space: nowrap; background-color: rgb(255, 255, 255); text-decoration-thickness: initial; text-decoration-style: initial; text-decoration-color: initial; display: inline !important; float: none;&quot;&gt;KTR-&lt;/span&gt;&lt;div&gt;&lt;span style=&quot;color: rgb(0, 0, 0); font-family: Helvetica; font-size: 11px; font-style: normal; font-variant-ligatures: normal; font-variant-caps: normal; font-weight: 400; letter-spacing: normal; orphans: 2; text-align: center; text-indent: 0px; text-transform: none; widows: 2; word-spacing: 0px; -webkit-text-stroke-width: 0px; white-space: nowrap; background-color: rgb(255, 255, 255); text-decoration-thickness: initial; text-decoration-style: initial; text-decoration-color: initial; display: inline !important; float: none;&quot;&gt;Bestandssysteme&lt;/span&gt;&lt;div&gt;&lt;div&gt;&lt;span style=&quot;color: rgb(0, 0, 0); font-family: Helvetica; font-size: 11px; font-style: normal; font-variant-ligatures: normal; font-variant-caps: normal; font-weight: 400; letter-spacing: normal; orphans: 2; text-align: center; text-indent: 0px; text-transform: none; widows: 2; word-spacing: 0px; -webkit-text-stroke-width: 0px; white-space: nowrap; background-color: rgb(255, 255, 255); text-decoration-thickness: initial; text-decoration-style: initial; text-decoration-color: initial; display: inline !important; float: none;&quot;&gt;(VSD-DB)&lt;/span&gt;&lt;/div&gt;&lt;/div&gt;&lt;/div&gt;" style="text;html=1;align=center;verticalAlign=middle;whiteSpace=wrap;rounded=0;" parent="1" vertex="1">
          <mxGeometry x="1300" y="165" width="100" height="100" as="geometry" />
        </mxCell>
        <mxCell id="IEj9VLfv4YksJk9ZvM38-12" value="" style="rounded=0;orthogonalLoop=1;jettySize=auto;html=1;endArrow=halfCircle;endFill=0;endSize=6;strokeWidth=1;sketch=0;exitX=1;exitY=0.5;exitDx=0;exitDy=0;" parent="1" edge="1">
          <mxGeometry relative="1" as="geometry">
            <mxPoint x="1210.0000000000002" y="180.25" as="sourcePoint" />
            <mxPoint x="1310" y="180" as="targetPoint" />
          </mxGeometry>
        </mxCell>
        <mxCell id="d0CA0vomVEIhd1OODavQ-1" style="edgeStyle=orthogonalEdgeStyle;rounded=1;orthogonalLoop=1;jettySize=auto;html=1;entryX=0;entryY=0.5;entryDx=0;entryDy=0;curved=0;exitX=1;exitY=0.75;exitDx=0;exitDy=0;" parent="1" target="7Tdx6mqpSsqZb4YxP3zN-1" edge="1">
          <mxGeometry relative="1" as="geometry">
            <Array as="points">
              <mxPoint x="360" y="250" />
              <mxPoint x="360" y="320" />
            </Array>
            <mxPoint x="310" y="250" as="sourcePoint" />
            <mxPoint x="570" y="365" as="targetPoint" />
          </mxGeometry>
        </mxCell>
      </root>
    </mxGraphModel>
  </diagram>
</mxfile>
